<svg width="139" height="40" viewBox="0 0 139 40" fill="none" xmlns="http://www.w3.org/2000/svg">
<g clip-path="url(#clip0_450_863)">
<path d="M0.185734 8.23943C0.154489 6.68463 0.60938 5.15884 1.48694 3.87498C2.36263 2.62349 3.55895 1.63069 4.95043 1.0007C6.39048 0.335334 7.95898 -0.00596426 9.5453 0.00087885C10.5942 0.0055326 11.6402 0.112344 12.6683 0.319801C13.6934 0.498636 14.6724 0.88088 15.5474 1.444C15.9266 1.66969 16.2398 1.99102 16.4557 2.37582C16.6716 2.76062 16.7826 3.19538 16.7777 3.63659C16.7938 4.39511 16.5197 5.13117 16.0114 5.69443C15.7693 5.96978 15.4696 6.18856 15.1336 6.33529C14.7975 6.48202 14.4334 6.55312 14.0668 6.54356C13.7656 6.54924 13.4654 6.50644 13.1778 6.41679L12.0975 6.0293C11.2396 5.71573 10.335 5.54863 9.42172 5.53497C8.71122 5.5295 8.01307 5.72073 7.40453 6.08751C7.12264 6.24067 6.88835 6.46846 6.72732 6.74594C6.5663 7.02341 6.48475 7.33985 6.49162 7.66059C6.49162 8.71223 7.28893 9.45213 8.88752 9.86115L10.471 10.2853C12.6083 10.7946 14.623 11.7237 16.3981 13.0185C17.1325 13.6183 17.7138 14.3839 18.0943 15.2523C18.4748 16.1208 18.6436 17.0672 18.5867 18.0136C18.7138 20.3225 17.9248 22.5882 16.391 24.3187C15.492 25.2847 14.3581 26.0014 13.0997 26.3989C11.7673 26.8461 10.3703 27.0705 8.96486 27.063C6.63517 27.1271 4.32113 26.6638 2.19574 25.7076C1.56635 25.4172 1.01854 24.9757 0.60113 24.4223C0.199921 23.8871 -0.0115975 23.2334 -3.84937e-05 22.5646C0.0049848 21.8779 0.277234 21.2202 0.758996 20.7308C0.98172 20.4755 1.25606 20.2702 1.56391 20.1287C1.87176 19.9871 2.20613 19.9124 2.54496 19.9096C3.06356 19.8969 3.57922 19.991 4.05984 20.1863L6.10812 20.9453C7.02536 21.3209 8.00564 21.5186 8.99675 21.5281C9.80552 21.538 10.5958 21.2863 11.2499 20.8105C11.5672 20.5959 11.8248 20.3042 11.9985 19.9628C12.1723 19.6215 12.2565 19.2416 12.2434 18.8587C12.2652 18.488 12.1881 18.1181 12.02 17.7869C11.8519 17.4557 11.5988 17.1751 11.2866 16.9739C10.8038 16.6605 10.285 16.4065 9.74144 16.2173C9.2386 16.053 8.37512 15.7873 7.15099 15.42C5.83899 15.0671 4.56528 14.5847 3.34864 13.98C2.40196 13.4912 1.60747 12.7522 1.05161 11.8433C0.430684 10.747 0.130634 9.49814 0.185734 8.23943ZM28.632 17.9355H33.116C35.9608 17.9355 38.1353 17.0212 39.6396 15.1927C41.0139 13.4639 41.717 11.2965 41.6193 9.09016C41.6176 8.31194 41.5062 7.53784 41.2884 6.79073C41.071 6.02234 40.7522 5.28633 40.3404 4.60213C39.9442 3.93581 39.4617 3.32482 38.9053 2.78507C37.4377 1.34886 35.248 0.629421 32.3363 0.626763H26.311C25.8279 0.597381 25.3438 0.667097 24.8886 0.83163C24.4334 0.996163 24.0167 1.25204 23.664 1.58353C23.3373 1.93577 23.0852 2.35043 22.9228 2.80258C22.7605 3.25473 22.6912 3.73503 22.7192 4.21464V23.5022C22.6939 24.3529 22.9787 25.1837 23.5205 25.8399C23.7887 26.1516 24.124 26.3986 24.5012 26.5622C24.8785 26.7258 25.2879 26.8019 25.6987 26.7847C26.1065 26.8047 26.5134 26.7302 26.8876 26.567C27.2619 26.4038 27.5934 26.1563 27.8562 25.8439C28.3884 25.1821 28.6646 24.3509 28.6344 23.5022L28.632 17.9355ZM28.632 12.7912V5.81004H31.9536C32.877 5.7744 33.7789 6.09463 34.473 6.70462C34.8062 7.01496 35.0733 7.38941 35.2583 7.8055C35.4433 8.22159 35.5423 8.67075 35.5494 9.12604C35.5742 9.60698 35.5016 10.088 35.3358 10.5401C35.17 10.9923 34.9145 11.4062 34.5847 11.7571C34.1885 12.119 33.7234 12.3973 33.2172 12.5754C32.711 12.7535 32.1741 12.8277 31.6386 12.7936L28.632 12.7912ZM58.6019 21.489L59.4127 24.3482C59.5892 24.9792 59.908 25.5613 60.3448 26.0496C60.5274 26.2734 60.7563 26.455 61.0157 26.5819C61.2752 26.7088 61.559 26.778 61.8477 26.7847C62.644 26.7998 63.4282 26.5883 64.1089 26.1748C64.4172 25.9908 64.6781 25.7369 64.8703 25.4336C65.0625 25.1303 65.1808 24.7861 65.2155 24.4287C65.2374 23.799 65.1566 23.1699 64.9763 22.5662L58.0326 3.44603C57.7117 2.49691 57.1237 1.66056 56.3391 1.03738C55.5725 0.447481 54.6323 0.127632 53.665 0.127632C52.6976 0.127632 51.7575 0.447481 50.9908 1.03738C50.2113 1.66523 49.6244 2.5 49.2973 3.44603L42.3496 22.5646C42.1654 23.1675 42.0845 23.7972 42.1104 24.4271C42.1572 24.7854 42.284 25.1286 42.4813 25.4312C42.6787 25.7339 42.9416 25.9883 43.2506 26.1756C43.9156 26.5866 44.6847 26.7977 45.4663 26.784C46.687 26.784 47.56 25.769 48.1022 23.7263L48.7257 21.4875L58.6019 21.489ZM56.8295 16.1989H50.5738L53.7048 6.37932L56.8295 16.1989ZM67.3005 12.7578C67.3005 17.5799 68.6123 21.2379 71.236 23.7319C72.3727 24.8146 73.7172 25.6554 75.1882 26.2035C76.6817 26.774 78.2673 27.0648 79.866 27.0614C82.0589 27.1549 84.2353 26.6441 86.1575 25.5848C86.6851 25.3413 87.1348 24.9563 87.4566 24.4725C87.7783 23.9887 87.9596 23.4251 87.9802 22.8445C87.995 22.1304 87.7515 21.4351 87.2945 20.8863C87.0696 20.6125 86.7839 20.3949 86.4602 20.2508C86.1365 20.1067 85.7836 20.0401 85.4296 20.0563C85.0294 20.0793 84.6366 20.1736 84.2695 20.3346L82.525 21.1438C81.3953 21.5396 80.1819 21.6338 79.0047 21.4171C77.8275 21.2004 76.7271 20.6802 75.8125 19.908C74.3402 18.535 73.6042 16.3701 73.6048 13.4131C73.585 12.0469 73.8286 10.6896 74.3224 9.41546C74.7609 8.22218 75.5707 7.20108 76.6327 6.50229C77.6948 5.80349 78.953 5.46388 80.2224 5.53338C81.2582 5.55892 82.2794 5.78303 83.2306 6.19355C83.9306 6.4983 84.6739 6.69173 85.4336 6.76681C85.7614 6.78495 86.0886 6.72282 86.3869 6.58582C86.6852 6.44883 86.9456 6.2411 87.1454 5.98067C87.5548 5.39863 87.7623 4.69853 87.7362 3.9874C87.7375 3.52009 87.6177 3.06041 87.3884 2.65322C87.159 2.24603 86.8281 1.90523 86.4278 1.66406C85.4927 1.03834 84.4442 0.601467 83.3415 0.378004C82.26 0.139252 81.1568 0.012873 80.0494 0.00087885C78.3005 -0.0139014 76.565 0.305985 74.9363 0.943294C73.409 1.54105 72.0239 2.45198 70.87 3.61745C69.7169 4.78315 68.8175 6.17495 68.2285 7.70524C67.6025 9.31558 67.2876 11.0301 67.3005 12.7578ZM97.4514 5.91927H103.559C104.32 5.94375 105.065 5.68849 105.651 5.2017C105.927 4.97045 106.147 4.67857 106.292 4.34877C106.437 4.01897 106.504 3.66012 106.488 3.30013C106.507 2.93166 106.443 2.5636 106.301 2.22323C106.158 1.88287 105.941 1.57893 105.665 1.33397C105.071 0.84814 104.32 0.596072 103.553 0.625169H95.1272C94.6439 0.596507 94.1598 0.666555 93.7045 0.831045C93.2491 0.995535 92.832 1.25102 92.4786 1.58193C92.1524 1.93459 91.9005 2.34927 91.7379 2.80129C91.5753 3.25331 91.5054 3.73342 91.5322 4.21304V22.8038C91.4834 23.2876 91.5429 23.7761 91.7063 24.2341C91.8698 24.692 92.1331 25.1078 92.4772 25.4513C92.8214 25.7948 93.2376 26.0574 93.6959 26.2201C94.1541 26.3827 94.6427 26.4413 95.1264 26.3917H103.552C104.316 26.4172 105.062 26.1619 105.65 25.6741C105.928 25.4398 106.148 25.1446 106.293 24.8115C106.438 24.4784 106.505 24.1163 106.487 23.7534C106.507 23.3857 106.443 23.0183 106.301 22.6788C106.158 22.3392 105.941 22.0363 105.664 21.7928C105.069 21.3145 104.321 21.0668 103.558 21.0952H97.4506V16.1136H102.972C103.728 16.136 104.467 15.8833 105.05 15.4024C105.333 15.1722 105.559 14.8796 105.709 14.5476C105.86 14.2156 105.931 13.8532 105.918 13.4889C105.936 13.1182 105.868 12.7484 105.721 12.4079C105.573 12.0674 105.349 11.7654 105.066 11.5251C104.475 11.0476 103.732 10.7976 102.973 10.8203H97.4514V5.91927Z" fill="#1A1818"/>
<path d="M136.607 6.3011L137.369 5.54207C137.647 5.27571 137.869 4.95647 138.022 4.60307C138.176 4.24968 138.257 3.86924 138.261 3.48408C138.265 3.09891 138.193 2.71676 138.047 2.36005C137.902 2.00333 137.687 1.67924 137.415 1.40676C137.142 1.13428 136.818 0.918907 136.462 0.773272C136.105 0.627636 135.723 0.55467 135.338 0.558651C134.953 0.562632 134.572 0.64348 134.219 0.796455C133.865 0.94943 133.546 1.17145 133.279 1.4495L132.518 2.21252C129.928 0.553488 126.849 -0.170707 123.791 0.159982C120.734 0.49067 117.881 1.85638 115.706 4.03073C113.53 6.20508 112.164 9.05748 111.832 12.1151C111.5 15.1727 112.223 18.252 113.881 20.8424L113.119 21.6094C112.576 22.1519 112.272 22.8875 112.272 23.6545C112.272 24.4215 112.577 25.157 113.12 25.6991C113.662 26.2413 114.398 26.5458 115.165 26.5456C115.932 26.5453 116.667 26.2404 117.21 25.6979L117.97 24.9373C120.561 26.5933 123.64 27.3148 126.696 26.9824C129.753 26.65 132.605 25.2836 134.779 23.1095C136.953 20.9354 138.319 18.0839 138.652 15.0272C138.985 11.9705 138.263 8.89188 136.607 6.3011ZM119.744 8.07431C120.843 6.97672 122.245 6.23318 123.77 5.93947C125.295 5.64575 126.873 5.8153 128.301 6.42628L118.095 16.6318C117.485 15.2031 117.317 13.6246 117.611 12.0993C117.905 10.5739 118.648 9.1714 119.746 8.07191M130.743 19.0691C129.645 20.1684 128.243 20.9132 126.718 21.2073C125.193 21.5013 123.614 21.3312 122.186 20.7188L132.392 10.5133C133.002 11.9409 133.171 13.5185 132.876 15.0429C132.582 16.5673 131.838 17.9687 130.741 19.0668" fill="#A3C423"/>
<path d="M2.46215 32.8585H0.0981445V31.5948H6.36496V32.8585H3.97305V39.8653H2.45817L2.46215 32.8585Z" fill="#1A1818"/>
<path d="M17.0171 36.1953H13.8901V38.6247H17.387V39.8637H12.376V31.594H17.2045V32.833H13.8901V34.9682H17.0179L17.0171 36.1953Z" fill="#1A1818"/>
<path d="M29.7011 39.6197C29.0204 39.8902 28.2907 40.0157 27.5587 39.988C24.9276 39.988 23.3227 38.344 23.3227 35.8285C23.2931 35.2415 23.388 34.655 23.6012 34.1073C23.8143 33.5596 24.1409 33.0632 24.5594 32.6507C24.978 32.2381 25.4791 31.9188 26.0298 31.7136C26.5805 31.5084 27.1684 31.422 27.7549 31.4601C28.4468 31.4353 29.1358 31.5609 29.7745 31.8284L29.442 33.0307C28.9279 32.8134 28.3744 32.7049 27.8163 32.7118C27.4166 32.6883 27.0166 32.7521 26.6441 32.8987C26.2716 33.0453 25.9354 33.2712 25.659 33.5608C25.3825 33.8504 25.1724 34.1967 25.0432 34.5756C24.9141 34.9545 24.8689 35.357 24.9109 35.7551C24.8718 36.1488 24.9191 36.5462 25.0494 36.9198C25.1797 37.2933 25.3899 37.6339 25.6654 37.9178C25.9409 38.2017 26.275 38.4221 26.6444 38.5636C27.0138 38.7051 27.4097 38.7643 27.8043 38.7371C28.3691 38.7453 28.9299 38.641 29.4539 38.4301L29.7011 39.6197Z" fill="#1A1818"/>
<path d="M37.5461 31.594V34.9076H41.0543V31.594H42.5692V39.8645H41.0543V36.22H37.5461V39.8645H36.0312V31.594H37.5461Z" fill="#1A1818"/>
<path d="M49.3428 39.8645V31.594H51.0665L53.2089 35.1404C53.7437 36.0313 54.2168 36.9578 54.6249 37.9135H54.6496C54.5508 36.8092 54.5141 35.7416 54.5141 34.4779V31.594H55.9174V39.8645H54.3538L52.1867 36.2319C51.637 35.3075 51.1395 34.3529 50.6966 33.3728L50.6599 33.3856C50.7213 34.4532 50.7333 35.5455 50.7333 36.9073V39.8645H49.3428Z" fill="#1A1818"/>
<path d="M70.0671 35.6435C70.0671 38.4166 68.38 40 66.0901 40C63.7508 40 62.2734 38.2204 62.2734 35.791C62.2734 33.2508 63.8744 31.4593 66.2137 31.4593C68.6391 31.4593 70.0679 33.2875 70.0679 35.6435M63.8744 35.7663C63.8744 37.447 64.7244 38.7849 66.177 38.7849C67.6425 38.7849 68.4669 37.4351 68.4669 35.7049C68.4669 34.1462 67.6911 32.6752 66.177 32.6752C64.6749 32.6752 63.8744 34.0617 63.8744 35.7671" fill="#1A1818"/>
<path d="M76.4102 31.594H77.925V38.6007H81.3351V39.8645H76.4102V31.594Z" fill="#1A1818"/>
<path d="M94.4031 35.6435C94.4031 38.4166 92.716 40 90.4261 40C88.086 40 86.6094 38.2204 86.6094 35.791C86.6094 33.2508 88.2096 31.4593 90.5497 31.4593C92.9751 31.4593 94.4031 33.2875 94.4031 35.6435ZM88.2096 35.7663C88.2096 37.447 89.0595 38.7849 90.5122 38.7849C91.9776 38.7849 92.8028 37.4351 92.8028 35.7049C92.8028 34.1462 92.0271 32.6752 90.5122 32.6752C89.0101 32.6752 88.2096 34.0617 88.2096 35.7671" fill="#1A1818"/>
<path d="M107.395 39.4841C106.536 39.7861 105.633 39.9437 104.723 39.9506C104.135 39.9893 103.546 39.9116 102.988 39.7222C102.43 39.5327 101.915 39.235 101.473 38.8463C101.081 38.4454 100.777 37.9683 100.578 37.4448C100.379 36.9213 100.289 36.3625 100.315 35.803C100.315 33.1894 102.186 31.5079 104.932 31.5079C105.686 31.4871 106.436 31.6209 107.136 31.901L106.803 33.1161C106.208 32.8631 105.566 32.7418 104.919 32.7605C104.518 32.7239 104.114 32.7752 103.734 32.9108C103.355 33.0464 103.01 33.263 102.722 33.5456C102.435 33.8282 102.213 34.17 102.072 34.5472C101.93 34.9244 101.872 35.3279 101.902 35.7296C101.865 36.1225 101.913 36.5188 102.043 36.8915C102.173 37.2641 102.381 37.6043 102.655 37.8886C102.929 38.173 103.261 38.3948 103.628 38.5389C103.996 38.683 104.39 38.746 104.784 38.7235C105.173 38.7436 105.562 38.6853 105.929 38.5521V36.4903H104.463V35.2999H107.395V39.4841Z" fill="#1A1818"/>
<path d="M115.496 31.594H113.981V39.8645H115.496V31.594Z" fill="#1A1818"/>
<path d="M126.911 36.1953H123.784V38.6247H127.281V39.8637H122.27V31.594H127.097V32.833H123.785V34.9682H126.913L126.911 36.1953Z" fill="#1A1818"/>
<path d="M133.61 38.2204C134.224 38.5613 134.914 38.7428 135.617 38.7482C136.589 38.7482 137.131 38.2946 137.131 37.6192C137.131 36.9934 136.713 36.6258 135.654 36.2447C134.287 35.7535 133.413 35.0296 133.413 33.84C133.413 32.4902 134.546 31.4593 136.343 31.4593C137.031 31.4404 137.713 31.5832 138.336 31.8763L137.967 33.0913C137.457 32.8283 136.891 32.6936 136.317 32.6991C135.36 32.6991 134.939 33.2141 134.939 33.6925C134.939 34.3304 135.417 34.6254 136.527 35.0543C137.968 35.5941 138.669 36.318 138.669 37.5084C138.669 38.8335 137.66 39.9872 135.518 39.9872C134.74 39.9939 133.972 39.8171 133.276 39.4714L133.61 38.2204Z" fill="#1A1818"/>
</g>
<defs>
<clipPath id="clip0_450_863">
<rect width="138.731" height="40" fill="white"/>
</clipPath>
</defs>
</svg>
